<svg xmlns="http://www.w3.org/2000/svg" width="74" height="74"><defs><clipPath id="a"><path fill="#fff" d="M0 74V0h74v74zm2-37c0 19.33 15.67 35 35 35s35-15.67 35-35S56.33 2 37 2 2 17.67 2 37z"/></clipPath><clipPath id="b"><path fill="#fff" d="M37 2c19.33 0 35 15.67 35 35S56.33 72 37 72 2 56.33 2 37 17.67 2 37 2z"/></clipPath><clipPath id="c"><path fill="#fff" d="M48.71 32.962a.734.734 0 00-.666-.43h-8.706l8.593-13.789a.757.757 0 00.023-.759.732.732 0 00-.644-.387H35.554a.736.736 0 00-.658.413l-11.02 22.4a.756.756 0 00.032.726c.134.22.37.355.625.355h7.555l-8.233 19.87a.755.755 0 00.294.927.734.734 0 00.946-.155l23.512-28.375a.755.755 0 00.103-.796z"/></clipPath></defs><path fill="#fff" d="M37 2c19.33 0 35 15.67 35 35S56.33 72 37 72 2 56.33 2 37 17.67 2 37 2z"/><path fill="none" stroke="#f56856" stroke-linecap="round" stroke-linejoin="round" stroke-miterlimit="20" stroke-width="4" d="M37 2c19.33 0 35 15.67 35 35S56.33 72 37 72 2 56.33 2 37 17.67 2 37 2z" clip-path="url(&quot;#a&quot;)"/><path fill="none" stroke="#fff" stroke-miterlimit="20" stroke-width="2" d="M37 2c19.33 0 35 15.67 35 35S56.33 72 37 72 2 56.33 2 37 17.67 2 37 2z" clip-path="url(&quot;#b&quot;)"/><path fill="#f56856" d="M48.71 32.962a.734.734 0 00-.666-.43h-8.706l8.593-13.789a.757.757 0 00.023-.759.732.732 0 00-.644-.387H35.554a.736.736 0 00-.658.413l-11.02 22.4a.756.756 0 00.032.726c.134.22.37.355.625.355h7.555l-8.233 19.87a.755.755 0 00.294.927.734.734 0 00.946-.155l23.512-28.375a.755.755 0 00.103-.796z"/><path fill="none" stroke="#fff" stroke-miterlimit="20" stroke-width="2" d="M48.71 32.962a.734.734 0 00-.666-.43h-8.706v0l8.593-13.789a.757.757 0 00.023-.759.732.732 0 00-.644-.387H35.554a.736.736 0 00-.658.413l-11.02 22.4a.756.756 0 00.032.726c.134.22.37.355.625.355h7.555v0l-8.233 19.87a.755.755 0 00.294.927.734.734 0 00.946-.155l23.512-28.375a.755.755 0 00.103-.796z" clip-path="url(&quot;#c&quot;)"/></svg>