<svg xmlns="http://www.w3.org/2000/svg" width="74" height="74"><defs><clipPath id="a"><path fill="#fff" d="M0 74V0h74v74zm37-34.322a3.636 3.636 0 10-1.816 6.79v4.047h3.631V46.47a3.636 3.636 0 001.824-3.151 3.64 3.64 0 00-3.64-3.64zm0-17.648a5.554 5.554 0 00-5.548 5.548v5.907h11.095v-5.907A5.554 5.554 0 0037 22.03zM37 2C17.67 2 2 17.67 2 36.999c0 19.33 15.67 35 35 35s35-15.67 35-35-15.67-35-35-35zm10.755 52.994H26.246a4.113 4.113 0 01-4.112-4.114V37.598a4.113 4.113 0 013.267-4.025v-5.996c0-6.395 5.203-11.6 11.6-11.6 6.395 0 11.598 5.204 11.598 11.6v5.996a4.115 4.115 0 013.267 4.025v13.28a4.113 4.113 0 01-4.112 4.115z"/></clipPath><clipPath id="b"><path fill="#fff" d="M40.64 43.318a3.636 3.636 0 01-1.825 3.15v4.047h-3.63V46.47A3.636 3.636 0 0137 39.679a3.64 3.64 0 013.64 3.639zm1.908-15.74v5.906H31.453v-5.907a5.554 5.554 0 015.548-5.548 5.554 5.554 0 015.547 5.548zM72 36.997c0 19.33-15.671 35-35 35-19.33 0-35-15.67-35-35s15.67-35 35-35c19.329 0 35 15.67 35 35zm-20.133 13.88v-13.28a4.115 4.115 0 00-3.268-4.025v-5.996c0-6.396-5.203-11.6-11.599-11.6s-11.6 5.205-11.6 11.6v5.996a4.113 4.113 0 00-3.266 4.025v13.28a4.113 4.113 0 004.112 4.115h21.508a4.113 4.113 0 004.113-4.114z"/></clipPath></defs><path fill="#f56856" d="M36 7c12.15 0 22 13.88 22 31 0 17.12-9.85 31-22 31S14 55.12 14 38c0-17.12 9.85-31 22-31z"/><path fill="#fff" d="M40.64 43.318a3.636 3.636 0 01-1.825 3.15v4.047h-3.63V46.47A3.636 3.636 0 0137 39.679a3.64 3.64 0 013.64 3.639zm1.908-15.74v5.906H31.453v-5.907a5.554 5.554 0 015.548-5.548 5.554 5.554 0 015.547 5.548zM72 36.997c0 19.33-15.671 35-35 35-19.33 0-35-15.67-35-35s15.67-35 35-35c19.329 0 35 15.67 35 35zm-20.133 13.88v-13.28a4.115 4.115 0 00-3.268-4.025v-5.996c0-6.396-5.203-11.6-11.599-11.6s-11.6 5.205-11.6 11.6v5.996a4.113 4.113 0 00-3.266 4.025v13.28a4.113 4.113 0 004.112 4.115h21.508a4.113 4.113 0 004.113-4.114z"/><path fill="none" stroke="#f56856" stroke-linecap="round" stroke-linejoin="round" stroke-miterlimit="20" stroke-width="4" d="M40.64 43.318a3.636 3.636 0 01-1.825 3.15v4.047h-3.63V46.47A3.636 3.636 0 0137 39.679a3.64 3.64 0 013.64 3.639zm1.908-15.74v5.906H31.453v-5.907a5.554 5.554 0 015.548-5.548 5.554 5.554 0 015.547 5.548zM72 36.997c0 19.33-15.671 35-35 35-19.33 0-35-15.67-35-35s15.67-35 35-35c19.329 0 35 15.67 35 35zm-20.133 13.88h0v-13.28a4.115 4.115 0 00-3.268-4.025v-5.996c0-6.396-5.203-11.6-11.599-11.6s-11.6 5.205-11.6 11.6v5.996a4.113 4.113 0 00-3.266 4.025v13.28a4.113 4.113 0 004.112 4.115h21.508a4.113 4.113 0 004.113-4.114z" clip-path="url(&quot;#a&quot;)"/><path fill="none" stroke="#fff" stroke-miterlimit="20" stroke-width="2" d="M40.64 43.318a3.636 3.636 0 01-1.825 3.15v4.047h-3.63V46.47A3.636 3.636 0 0137 39.679a3.64 3.64 0 013.64 3.639zm1.908-15.74v5.906H31.453v-5.907a5.554 5.554 0 015.548-5.548 5.554 5.554 0 015.547 5.548zM72 36.997c0 19.33-15.671 35-35 35-19.33 0-35-15.67-35-35s15.67-35 35-35c19.329 0 35 15.67 35 35zm-20.133 13.88h0v-13.28a4.115 4.115 0 00-3.268-4.025v-5.996c0-6.396-5.203-11.6-11.599-11.6s-11.6 5.205-11.6 11.6v5.996a4.113 4.113 0 00-3.266 4.025v13.28a4.113 4.113 0 004.112 4.115h21.508a4.113 4.113 0 004.113-4.114z" clip-path="url(&quot;#b&quot;)"/></svg>