<svg xmlns="http://www.w3.org/2000/svg" width="74" height="74"><defs><clipPath id="a"><path fill="#fff" d="M0 74V0h74v74zM37 1.999c-19.328 0-35 15.668-35 34.999 0 19.33 15.672 35 35 35 19.33 0 35-15.67 35-35s-15.67-35-35-35zm6.383 23.083a1.421 1.421 0 012.414 1.498c-.414.67-2.68 1.63-2.68 1.63s-.152-2.46.266-3.128zm-3.083.412s-.222-2.953.266-3.765a1.706 1.706 0 012.342-.582 1.706 1.706 0 01.588 2.342c-.484.807-3.195 2.005-3.195 2.005zm-2.976-1.81s-1.154-3.118-.878-4.14a1.923 1.923 0 012.35-1.355 1.914 1.914 0 011.354 2.351c-.271 1.023-2.826 3.145-2.826 3.145zm-7.13-5.612a2.686 2.686 0 013.298-1.905 2.69 2.69 0 011.906 3.299c-.383 1.436-3.976 4.424-3.976 4.424s-1.617-4.383-1.228-5.818zM42.98 31.43c2.184 4.875-2.746 10.397-3.789 16.183-2.085 11.601-6.667 11.093-8.5 9.88-1.521-1-2.928-4.295 1.841-10.478 2.122-2.744-.85-6.051-3.698-9.704-2.956-3.79-2.264-9.484 2.882-12.012 3.504-1.72 9.08 1.26 11.264 6.13zm3.602-2.667c.441.428.445 1.13.015 1.57-.423.436-2.312.785-2.312.785s.3-1.896.728-2.337a1.115 1.115 0 011.569-.018z"/></clipPath><clipPath id="b"><path fill="#fff" d="M72 36.998c0 19.33-15.67 35-35 35-19.328 0-35-15.67-35-35s15.672-35 35-35c19.33 0 35 15.67 35 35zM43.383 25.082c-.418.668-.266 3.127-.266 3.127s2.266-.96 2.68-1.63a1.421 1.421 0 00-2.414-1.497zm-3.082.412s2.71-1.198 3.195-2.005a1.706 1.706 0 00-.588-2.342 1.706 1.706 0 00-2.342.582c-.488.812-.265 3.765-.265 3.765zm-2.977-1.81s2.555-2.121 2.826-3.144a1.914 1.914 0 00-1.353-2.35 1.923 1.923 0 00-2.351 1.355c-.276 1.02.878 4.14.878 4.14zm-5.902.206s3.593-2.988 3.976-4.424a2.69 2.69 0 00-1.906-3.3 2.686 2.686 0 00-3.298 1.906c-.389 1.435 1.228 5.818 1.228 5.818zm11.558 7.539c-2.183-4.87-7.76-7.85-11.264-6.13-5.146 2.527-5.838 8.22-2.882 12.011 2.847 3.653 5.82 6.96 3.698 9.704-4.769 6.183-3.362 9.477-1.842 10.479 1.834 1.212 6.416 1.72 8.501-9.881 1.043-5.786 5.973-11.308 3.79-16.183zm3.602-2.667a1.115 1.115 0 00-1.569.018c-.427.441-.728 2.337-.728 2.337s1.889-.35 2.312-.785c.43-.44.426-1.142-.015-1.57z"/></clipPath></defs><path fill="#f56856" d="M35 8c12.15 0 22 13.88 22 31 0 17.12-9.85 31-22 31S13 56.12 13 39c0-17.12 9.85-31 22-31z"/><path fill="#fff" d="M72 36.998c0 19.33-15.67 35-35 35-19.328 0-35-15.67-35-35s15.672-35 35-35c19.33 0 35 15.67 35 35zM43.383 25.082c-.418.668-.266 3.127-.266 3.127s2.266-.96 2.68-1.63a1.421 1.421 0 00-2.414-1.497zm-3.082.412s2.71-1.198 3.195-2.005a1.706 1.706 0 00-.588-2.342 1.706 1.706 0 00-2.342.582c-.488.812-.265 3.765-.265 3.765zm-2.977-1.81s2.555-2.121 2.826-3.144a1.914 1.914 0 00-1.353-2.35 1.923 1.923 0 00-2.351 1.355c-.276 1.02.878 4.14.878 4.14zm-5.902.206s3.593-2.988 3.976-4.424a2.69 2.69 0 00-1.906-3.3 2.686 2.686 0 00-3.298 1.906c-.389 1.435 1.228 5.818 1.228 5.818zm11.558 7.539c-2.183-4.87-7.76-7.85-11.264-6.13-5.146 2.527-5.838 8.22-2.882 12.011 2.847 3.653 5.82 6.96 3.698 9.704-4.769 6.183-3.362 9.477-1.842 10.479 1.834 1.212 6.416 1.72 8.501-9.881 1.043-5.786 5.973-11.308 3.79-16.183zm3.602-2.667a1.115 1.115 0 00-1.569.018c-.427.441-.728 2.337-.728 2.337s1.889-.35 2.312-.785c.43-.44.426-1.142-.015-1.57z"/><path fill="none" stroke="#f56856" stroke-linecap="round" stroke-linejoin="round" stroke-miterlimit="20" stroke-width="4" d="M72 36.998c0 19.33-15.67 35-35 35-19.328 0-35-15.67-35-35s15.672-35 35-35c19.33 0 35 15.67 35 35zM43.383 25.082c-.418.668-.266 3.127-.266 3.127s2.266-.96 2.68-1.63a1.421 1.421 0 00-2.414-1.497zm-3.082.412s2.71-1.198 3.195-2.005a1.706 1.706 0 00-.588-2.342 1.706 1.706 0 00-2.342.582c-.488.812-.265 3.765-.265 3.765zm-2.977-1.81s2.555-2.121 2.826-3.144a1.914 1.914 0 00-1.353-2.35 1.923 1.923 0 00-2.351 1.355c-.276 1.02.878 4.14.878 4.14zm-5.902.206s3.593-2.988 3.976-4.424a2.69 2.69 0 00-1.906-3.3 2.686 2.686 0 00-3.298 1.906c-.389 1.435 1.228 5.818 1.228 5.818zm11.558 7.539c-2.183-4.87-7.76-7.85-11.264-6.13-5.146 2.527-5.838 8.22-2.882 12.011 2.847 3.653 5.82 6.96 3.698 9.704-4.769 6.183-3.362 9.477-1.842 10.479 1.834 1.212 6.416 1.72 8.501-9.881 1.043-5.786 5.973-11.308 3.79-16.183zm3.602-2.667a1.115 1.115 0 00-1.569.018c-.427.441-.728 2.337-.728 2.337s1.889-.35 2.312-.785c.43-.44.426-1.142-.015-1.57z" clip-path="url(&quot;#a&quot;)"/><path fill="none" stroke="#fff" stroke-miterlimit="20" stroke-width="2" d="M72 36.998c0 19.33-15.67 35-35 35-19.328 0-35-15.67-35-35s15.672-35 35-35c19.33 0 35 15.67 35 35zM43.383 25.082c-.418.668-.266 3.127-.266 3.127s2.266-.96 2.68-1.63a1.421 1.421 0 00-2.414-1.497zm-3.082.412s2.71-1.198 3.195-2.005a1.706 1.706 0 00-.588-2.342 1.706 1.706 0 00-2.342.582c-.488.812-.265 3.765-.265 3.765zm-2.977-1.81s2.555-2.121 2.826-3.144a1.914 1.914 0 00-1.353-2.35 1.923 1.923 0 00-2.351 1.355c-.276 1.02.878 4.14.878 4.14zm-5.902.206s3.593-2.988 3.976-4.424a2.69 2.69 0 00-1.906-3.3 2.686 2.686 0 00-3.298 1.906c-.389 1.435 1.228 5.818 1.228 5.818zm11.558 7.539c-2.183-4.87-7.76-7.85-11.264-6.13-5.146 2.527-5.838 8.22-2.882 12.011 2.847 3.653 5.82 6.96 3.698 9.704-4.769 6.183-3.362 9.477-1.842 10.479 1.834 1.212 6.416 1.72 8.501-9.881 1.043-5.786 5.973-11.308 3.79-16.183zm3.602-2.667a1.115 1.115 0 00-1.569.018c-.427.441-.728 2.337-.728 2.337s1.889-.35 2.312-.785c.43-.44.426-1.142-.015-1.57z" clip-path="url(&quot;#b&quot;)"/></svg>