<svg xmlns="http://www.w3.org/2000/svg" width="70" height="103"><path fill="#b9cfdd" d="M10.652 32.998h48.696C65.222 32.998 70 37.776 70 43.65v33.48c0 5.873-4.778 10.652-10.652 10.652H26.5l-14.77 14.773a1.53 1.53 0 01-1.66.328 1.522 1.522 0 01-.94-1.406V87.674C3.975 86.932 0 82.486 0 77.13V43.65c0-5.874 4.779-10.652 10.652-10.652zm-7.608 44.13c0 4.198 3.414 7.61 7.608 7.61.84 0 1.522.68 1.522 1.52v11.545l12.618-12.62a1.53 1.53 0 011.078-.446h33.478c4.194 0 7.608-3.411 7.608-7.608V43.65c0-4.197-3.414-7.608-7.608-7.608H10.652c-4.193 0-7.608 3.411-7.608 7.608zM35 69.52a4.571 4.571 0 014.565 4.565A4.57 4.57 0 0135 78.65a4.57 4.57 0 01-4.565-4.565A4.571 4.571 0 0135 69.52zm0 6.087c.84 0 1.522-.684 1.522-1.522 0-.836-.682-1.522-1.522-1.522s-1.522.686-1.522 1.522c0 .838.682 1.522 1.522 1.522zm-4.863-32.024a4.579 4.579 0 013.341-1.455h3.044c1.263 0 2.477.53 3.338 1.455a4.595 4.595 0 011.215 3.459l-1.287 14.994c-.177 2.489-2.271 4.44-4.788 4.44-2.496 0-4.59-1.951-4.763-4.416l-1.312-15.04a4.572 4.572 0 011.212-3.437zm1.82 3.196l1.314 15.044c.064.904.825 1.61 1.753 1.61.907 0 1.665-.706 1.732-1.634l1.285-14.995a1.5 1.5 0 00-.405-1.148 1.519 1.519 0 00-1.114-.484h-3.044c-.426 0-.821.174-1.114.484a1.49 1.49 0 00-.407 1.123zM0 0h70v3H0z"/></svg>